<svg width="62" height="72" viewBox="0 0 62 72" fill="none" xmlns="http://www.w3.org/2000/svg">
<g clip-path="url(#clip0_31_34)">
<path d="M28 5.99992C34.5337 5.63009 34.5337 5.63009 36.8125 7.43742C37.4003 8.21086 37.4003 8.21086 38 8.99992C38.66 9.32992 39.32 9.65992 40 9.99992C40 14.6199 40 19.2399 40 23.9999C40.99 23.9999 41.98 23.9999 43 23.9999C43 20.0399 43 16.0799 43 11.9999C48.339 14.6694 51.5582 18.313 54.375 23.5624C55.1146 26.4469 55.1379 29.0345 55 31.9999C56.32 31.9999 57.64 31.9999 59 31.9999C59 33.6499 59 35.2999 59 36.9999C52.4 36.9999 45.8 36.9999 39 36.9999C38.67 37.9899 38.34 38.9799 38 39.9999C33.71 39.9999 29.42 39.9999 25 39.9999C24.67 39.0099 24.34 38.0199 24 36.9999C17.4 36.9999 10.8 36.9999 4 36.9999C4 35.3499 4 33.6999 4 31.9999C5.32 31.9999 6.64 31.9999 8 31.9999C8.00258 31.443 8.00516 30.8862 8.00781 30.3124C8.39255 22.7203 11.6019 18.7361 16.5703 13.2734C18 11.9999 18 11.9999 20 11.9999C20 15.9599 20 19.9199 20 23.9999C20.99 23.9999 21.98 23.9999 23 23.9999C23 19.3799 23 14.7599 23 9.99992C24.32 9.66992 25.64 9.33992 27 8.99992C27.33 8.00992 27.66 7.01992 28 5.99992Z" fill="#FC6D08"/>
<path d="M9.99999 38C12.97 38 15.94 38 19 38C19.0864 38.6755 19.1727 39.3509 19.2617 40.0469C20.1157 45.8849 20.1157 45.8849 23.5 50.5625C28.3762 53.3663 31.5236 53.1749 37 52C40.0882 50.7461 40.0882 50.7461 42 48C42.9844 44.6998 43.5636 41.4128 44 38C46.97 38 49.94 38 53 38C53.799 43.2451 54.1317 47.7803 53 53C49.1737 56.8094 44.8422 58.7913 40 61C38.6558 61.8369 37.3193 62.6869 36 63.5625C32.5096 65.235 31.6227 64.9982 28 64C21.6342 61.4615 14.7557 58.0036 9.99999 53C7.95472 48.1026 8.89287 43.0641 9.99999 38Z" fill="#929292"/>
</g>
<defs>
<clipPath id="clip0_31_34">
<rect width="62" height="72" fill="white"/>
</clipPath>
</defs>
</svg>
