<svg width="700" height="270" viewBox="0 0 700 270" fill="none" xmlns="http://www.w3.org/2000/svg">
<mask id="mask0_501_45" style="mask-type:luminance" maskUnits="userSpaceOnUse" x="0" y="0" width="700" height="200">
<path d="M0 0V200H700L0 0Z" fill="white"/>
</mask>
<g mask="url(#mask0_501_45)">
<path d="M0 0V200H700L0 0Z" stroke="#ED1C24" stroke-width="40"/>
<path d="M0 0L233.33 200L350 100L466.67 200L583.33 166.67" stroke="#ED1C24" stroke-width="20"/>
</g>
<path d="M700 200H0V270H700V200Z" fill="#ED1C24"/>
<path d="M97.6328 247V215H119.195V220.578H104.398V228.203H118.086V233.781H104.398V241.422H119.258V247H97.6328ZM151.34 215V247H145.496L131.574 226.859H131.34V247H124.574V215H130.512L144.324 235.125H144.605V215H151.34ZM155.711 220.578V215H181.992V220.578H172.195V247H165.508V220.578H155.711ZM186.32 247V215H207.883V220.578H193.086V228.203H206.773V233.781H193.086V241.422H207.945V247H186.32ZM213.262 247V215H225.887C228.303 215 230.366 215.432 232.074 216.297C233.793 217.151 235.1 218.365 235.996 219.938C236.902 221.5 237.355 223.339 237.355 225.453C237.355 227.578 236.897 229.406 235.98 230.937C235.064 232.458 233.736 233.625 231.996 234.437C230.267 235.25 228.173 235.656 225.715 235.656H217.262V230.219H224.621C225.913 230.219 226.986 230.042 227.84 229.688C228.694 229.333 229.329 228.802 229.746 228.094C230.173 227.385 230.387 226.505 230.387 225.453C230.387 224.391 230.173 223.495 229.746 222.766C229.329 222.036 228.689 221.484 227.824 221.109C226.97 220.724 225.892 220.531 224.59 220.531H220.027V247H213.262ZM230.543 232.438L238.496 247H231.027L223.246 232.438H230.543ZM242.137 247V215H254.762C257.189 215 259.257 215.464 260.965 216.391C262.673 217.307 263.975 218.583 264.871 220.219C265.777 221.844 266.23 223.719 266.23 225.844C266.23 227.969 265.772 229.844 264.855 231.469C263.939 233.094 262.611 234.359 260.871 235.266C259.142 236.172 257.048 236.625 254.59 236.625H246.543V231.203H253.496C254.798 231.203 255.871 230.979 256.715 230.531C257.569 230.073 258.204 229.443 258.621 228.641C259.048 227.828 259.262 226.896 259.262 225.844C259.262 224.781 259.048 223.854 258.621 223.062C258.204 222.26 257.569 221.641 256.715 221.203C255.861 220.755 254.777 220.531 253.465 220.531H248.902V247H242.137ZM270.625 247V215H283.25C285.667 215 287.729 215.432 289.438 216.297C291.156 217.151 292.464 218.365 293.359 219.938C294.266 221.5 294.719 223.339 294.719 225.453C294.719 227.578 294.26 229.406 293.344 230.937C292.427 232.458 291.099 233.625 289.359 234.437C287.63 235.25 285.536 235.656 283.078 235.656H274.625V230.219H281.984C283.276 230.219 284.349 230.042 285.203 229.688C286.057 229.333 286.693 228.802 287.109 228.094C287.536 227.385 287.75 226.505 287.75 225.453C287.75 224.391 287.536 223.495 287.109 222.766C286.693 222.036 286.052 221.484 285.188 221.109C284.333 220.724 283.255 220.531 281.953 220.531H277.391V247H270.625ZM287.906 232.438L295.859 247H288.391L280.609 232.438H287.906ZM306.266 215V247H299.5V215H306.266ZM311.488 247V242.984L327.457 220.578H311.457V215H335.957V219.016L319.973 241.422H335.988V247H311.488ZM341.18 247V215H362.742V220.578H347.945V228.203H361.633V233.781H347.945V241.422H362.805V247H341.18ZM395.664 224.203C395.539 222.943 395.003 221.964 394.055 221.266C393.107 220.568 391.82 220.219 390.195 220.219C389.091 220.219 388.159 220.375 387.398 220.687C386.638 220.99 386.055 221.411 385.648 221.953C385.253 222.495 385.055 223.109 385.055 223.797C385.034 224.37 385.154 224.87 385.414 225.297C385.685 225.724 386.055 226.094 386.523 226.406C386.992 226.708 387.534 226.974 388.148 227.203C388.763 227.422 389.419 227.609 390.117 227.766L392.992 228.453C394.388 228.766 395.669 229.182 396.836 229.703C398.003 230.224 399.013 230.865 399.867 231.625C400.721 232.385 401.383 233.281 401.852 234.312C402.331 235.344 402.576 236.526 402.586 237.859C402.576 239.818 402.076 241.516 401.086 242.953C400.107 244.38 398.69 245.49 396.836 246.281C394.992 247.062 392.768 247.453 390.164 247.453C387.581 247.453 385.331 247.057 383.414 246.266C381.508 245.474 380.018 244.302 378.945 242.75C377.883 241.187 377.326 239.255 377.273 236.953H383.82C383.893 238.026 384.201 238.922 384.742 239.641C385.294 240.349 386.029 240.885 386.945 241.25C387.872 241.604 388.919 241.781 390.086 241.781C391.232 241.781 392.227 241.615 393.07 241.281C393.924 240.948 394.586 240.484 395.055 239.891C395.523 239.297 395.758 238.615 395.758 237.844C395.758 237.125 395.544 236.521 395.117 236.031C394.701 235.542 394.086 235.125 393.273 234.781C392.471 234.437 391.487 234.125 390.32 233.844L386.836 232.969C384.138 232.312 382.008 231.286 380.445 229.891C378.883 228.495 378.107 226.615 378.117 224.25C378.107 222.312 378.622 220.62 379.664 219.172C380.716 217.724 382.159 216.594 383.992 215.781C385.826 214.969 387.909 214.562 390.242 214.562C392.617 214.562 394.69 214.969 396.461 215.781C398.242 216.594 399.628 217.724 400.617 219.172C401.607 220.62 402.117 222.297 402.148 224.203H395.664ZM405.918 220.578V215H432.199V220.578H422.402V247H415.715V220.578H405.918ZM436.527 247V215H458.09V220.578H443.293V228.203H456.98V233.781H443.293V241.422H458.152V247H436.527ZM463.469 247V215H485.031V220.578H470.234V228.203H483.922V233.781H470.234V241.422H485.094V247H463.469ZM490.41 247V215H497.176V241.422H510.895V247H490.41ZM525.559 247V215H532.324V241.422H546.043V247H525.559ZM545.309 220.578V215H571.59V220.578H561.793V247H555.105V220.578H545.309ZM587.262 247H575.918V215H587.355C590.574 215 593.345 215.641 595.668 216.922C597.991 218.193 599.777 220.021 601.027 222.406C602.288 224.792 602.918 227.646 602.918 230.969C602.918 234.302 602.288 237.167 601.027 239.562C599.777 241.958 597.98 243.797 595.637 245.078C593.303 246.359 590.512 247 587.262 247ZM582.684 241.203H586.98C588.98 241.203 590.663 240.849 592.027 240.141C593.402 239.422 594.434 238.312 595.121 236.812C595.819 235.302 596.168 233.354 596.168 230.969C596.168 228.604 595.819 226.672 595.121 225.172C594.434 223.672 593.408 222.568 592.043 221.859C590.678 221.151 588.996 220.797 586.996 220.797H582.684V241.203Z" fill="white"/>
</svg>
